HIERARCHY
ROOT Hips
{
    OFFSET 0.000000 0.000000 0.000000
    CHANNELS 6 Xposition Yposition Zposition Zrotation Xrotation Yrotation
    JOINT Spine
    {
        OFFSET -0.000000 14.517291 0.000000
        CHANNELS 3 Zrotation Xrotation Yrotation
        JOINT Spine1
        {
            OFFSET -0.000000 37.558300 0.000000
            CHANNELS 3 Zrotation Xrotation Yrotation
            JOINT Neck
            {
                OFFSET -0.000000 37.404057 3.400369
                CHANNELS 3 Zrotation Xrotation Yrotation
                JOINT Head
                {
                    OFFSET -0.000000 24.785618 -3.540803
                    CHANNELS 3 Zrotation Xrotation Yrotation
                    End Site
                    {
                        OFFSET -0.000000 35.408028 0.000000
                    }
                }
            }
            JOINT LeftShoulder
            {
                OFFSET 6.992933 33.973492 -0.192664
                CHANNELS 3 Zrotation Xrotation Yrotation
                JOINT LeftArm
                {
                    OFFSET 21.527611 0.000000 0.000000
                    CHANNELS 3 Zrotation Xrotation Yrotation
                    JOINT LeftForeArm
                    {
                        OFFSET 56.353916 0.000000 0.000000
                        CHANNELS 3 Zrotation Xrotation Yrotation
                        JOINT LeftHand
                        {
                            OFFSET 47.774071 0.000000 0.000000
                            CHANNELS 3 Zrotation Xrotation Yrotation
                            End Site
                            {
                                OFFSET 26.556021 0.000000 0.000000
                            }
                        }
                    }
                }
            }
            JOINT RightShoulder
            {
                OFFSET -7.065357 33.973492 -0.192664
                CHANNELS 3 Zrotation Xrotation Yrotation
                JOINT RightArm
                {
                    OFFSET -21.527611 0.000000 0.000000
                    CHANNELS 3 Zrotation Xrotation Yrotation
                    JOINT RightForeArm
                    {
                        OFFSET -56.353916 0.000000 0.000000
                        CHANNELS 3 Zrotation Xrotation Yrotation
                        JOINT RightHand
                        {
                            OFFSET -47.774071 0.000000 0.000000
                            CHANNELS 3 Zrotation Xrotation Yrotation
                            End Site
                            {
                                OFFSET -26.556021 0.000000 0.000000
                            }
                        }
                    }
                }
            }
        }
    }
    JOINT LeftUpLeg
    {
        OFFSET 17.704014 0.000000 0.000000
        CHANNELS 3 Zrotation Xrotation Yrotation
        JOINT LeftLeg
        {
            OFFSET -0.000000 -81.181816 0.000000
            CHANNELS 3 Zrotation Xrotation Yrotation
            JOINT LeftFoot
            {
                OFFSET -0.000000 -62.821102 0.000000
                CHANNELS 3 Zrotation Xrotation Yrotation
                JOINT LeftToeBase
                {
                    OFFSET -0.000000 -11.507608 26.556021
                    CHANNELS 3 Zrotation Xrotation Yrotation
                    End Site
                    {
                        OFFSET -0.000000 0.000000 7.081605
                    }
                }
            }
        }
    }
    JOINT RightUpLeg
    {
        OFFSET -17.704014 0.000000 0.000000
        CHANNELS 3 Zrotation Xrotation Yrotation
        JOINT RightLeg
        {
            OFFSET -0.000000 -81.181816 0.000000
            CHANNELS 3 Zrotation Xrotation Yrotation
            JOINT RightFoot
            {
                OFFSET -0.000000 -62.821102 0.000000
                CHANNELS 3 Zrotation Xrotation Yrotation
                JOINT RightToeBase
                {
                    OFFSET -0.000000 -11.507608 26.556021
                    CHANNELS 3 Zrotation Xrotation Yrotation
                    End Site
                    {
                        OFFSET -0.000000 0.000000 7.081605
                    }
                }
            }
        }
    }
}
MOTION
Frames:    12
Frame Time:    0.008333
-13.247386    156.565643    -21.830889    -0.796160    5.031380    8.933908    -0.916400    2.080745    8.168646    -1.034866    -0.580957    2.712834    -2.348605    0.945027    -11.359448    12.221826    -4.672281    -9.281612    0.088831    5.612610    -8.320448    -40.500977    19.853838    -40.326458    1.800770    -30.870956    -129.307892    -8.325123    -26.803116    -11.503197    -2.463867    9.566488    2.433133    37.381771    6.539226    56.326904    -28.785009    -28.872587    57.908180    9.356107    -10.809602    34.634388    2.907431    -32.494625    -22.413803    -11.668273    24.709743    -21.349722    -4.741383    -1.670390    37.423096    0.000000    0.000000    0.000000    -3.549972    11.339535    -10.796945    3.312682    25.647079    -3.682836    20.241432    -8.721457    -2.597751    0.000000    0.000000    0.000000    
-13.366469    156.513718    -21.869715    -0.799284    4.989896    9.202168    -0.924467    2.074559    8.202615    -1.038584    -0.567487    2.724231    -2.466239    1.067159    -11.520851    12.386369    -4.684149    -9.405341    0.068439    5.649264    -8.257652    -40.442699    19.970085    -40.486115    1.581109    -30.605062    -129.579956    -8.126661    -26.954195    -11.295625    -2.471230    9.613926    2.417294    37.468704    6.525561    56.118015    -29.047655    -28.950390    57.811790    9.186683    -10.834588    34.540871    2.826848    -32.507881    -22.598375    -11.657861    24.674335    -21.398579    -4.786855    -1.645611    37.365616    0.000000    0.000000    0.000000    -3.433525    11.384847    -10.846595    3.357021    25.711323    -3.767987    20.182873    -8.848090    -2.608995    0.000000    0.000000    0.000000    
-13.483551    156.462128    -21.914318    -0.806745    4.962596    9.484846    -0.939176    2.044446    8.219932    -1.013682    -0.536438    2.730392    -2.604386    1.174888    -11.681398    12.553626    -4.686155    -9.525823    0.023429    5.624587    -8.230866    -40.446907    20.071247    -40.526138    1.490365    -30.341810    -129.781662    -8.129398    -26.848221    -11.175140    -2.502932    9.675653    2.396391    37.569481    6.497322    55.929733    -29.270430    -29.038042    57.729523    9.113210    -10.851016    34.551895    2.750961    -32.535454    -22.795547    -11.670807    24.622265    -21.449968    -4.840692    -1.615174    37.337799    0.000000    0.000000    0.000000    -3.314444    11.405145    -10.896465    3.406715    25.792919    -3.796530    20.116899    -8.996510    -2.671213    0.000000    0.000000    0.000000    
-13.591925    156.415314    -21.956999    -0.806053    4.960874    9.775525    -0.951985    1.984946    8.233956    -1.022206    -0.508068    2.735339    -2.687772    1.296114    -11.842893    12.673769    -4.706339    -9.662062    0.038745    5.678288    -8.203777    -40.445137    20.179846    -40.647511    1.376221    -30.130230    -129.952042    -8.121537    -26.841602    -11.116686    -2.504114    9.740113    2.374402    37.650272    6.481022    55.719486    -29.499836    -29.122835    57.649227    9.035741    -10.865197    34.517990    2.649621    -32.580330    -22.964483    -11.652015    24.570210    -21.515448    -4.899477    -1.572451    37.283943    0.000000    0.000000    0.000000    -3.204403    11.400438    -10.965361    3.438753    25.878553    -3.779436    20.001900    -9.140865    -2.739657    0.000000    0.000000    0.000000    
-13.702355    156.370850    -22.002871    -0.804901    4.957850    10.063388    -0.961896    1.958704    8.228025    -1.035314    -0.522859    2.733180    -2.788218    1.421293    -12.003136    12.810480    -4.712541    -9.793432    0.004700    5.662250    -8.163730    -40.445808    20.318470    -40.666180    1.122423    -29.928473    -130.292297    -7.950758    -27.137005    -10.792261    -2.519885    9.782994    2.401109    37.745884    6.486166    55.459431    -29.713404    -29.211662    57.602306    8.967087    -10.879258    34.483562    2.551694    -32.622421    -23.124907    -11.631150    24.515312    -21.564323    -4.979827    -1.535642    37.195976    0.000000    0.000000    0.000000    -3.077769    11.383668    -11.055535    3.434452    25.975580    -3.810734    19.892416    -9.265072    -2.764803    0.000000    0.000000    0.000000    
-13.805747    156.335144    -22.055157    -0.798818    4.970529    10.344881    -0.983582    1.920762    8.240945    -1.028549    -0.529218    2.737417    -2.916488    1.517495    -12.166415    12.951751    -4.705358    -9.924333    -0.041135    5.656882    -8.144552    -40.444733    20.420277    -40.684196    1.042291    -29.666340    -130.457855    -7.897024    -27.021381    -10.754124    -2.546380    9.814986    2.394831    37.833313    6.502172    55.193913    -29.932236    -29.298100    57.565018    8.928684    -10.876069    34.436848    2.435826    -32.670303    -23.233370    -11.553551    24.458166    -21.693844    -5.058853    -1.474728    37.120792    0.000000    0.000000    0.000000    -2.962883    11.354389    -11.143728    3.413893    26.122612    -3.804967    19.790928    -9.442426    -2.753973    0.000000    0.000000    0.000000    
-13.909617    156.302551    -22.112673    -0.785982    4.995585    10.636436    -1.017308    1.887925    8.248107    -1.026919    -0.542321    2.739577    -3.016631    1.582545    -12.325832    13.055158    -4.691730    -10.062009    -0.050819    5.663674    -8.089981    -40.475380    20.494623    -40.756317    0.834070    -29.316395    -130.700821    -8.179762    -27.034126    -10.727871    -2.571854    9.870428    2.367795    37.883972    6.537193    54.951591    -30.182684    -29.431595    57.506432    8.940570    -10.896123    34.427914    2.294590    -32.730572    -23.351097    -11.467871    24.401987    -21.822353    -5.153093    -1.399057    37.059540    0.000000    0.000000    0.000000    -2.856408    11.290793    -11.189973    3.437911    26.248795    -3.835245    19.656775    -9.563424    -2.841866    0.000000    0.000000    0.000000    
-14.017813    156.262558    -22.168594    -0.761543    5.010233    10.952243    -1.068204    1.864480    8.243505    -1.030887    -0.550308    2.737729    -3.094363    1.676168    -12.480742    13.168967    -4.723045    -10.192009    -0.052035    5.657802    -8.105171    -40.460335    20.649904    -40.785778    0.759270    -29.142271    -130.867111    -8.174270    -26.998533    -10.693337    -2.571880    9.935156    2.349572    37.936493    6.528091    54.677097    -30.371399    -29.547157    57.505581    8.939972    -10.917045    34.407619    2.127333    -32.786312    -23.566891    -11.402340    24.346279    -21.949326    -5.255229    -1.344239    37.040569    0.000000    0.000000    0.000000    -2.741153    11.230700    -11.256094    3.451355    26.395514    -3.854872    19.579517    -9.742633    -3.021172    0.000000    0.000000    0.000000    
-14.117646    156.213242    -22.226976    -0.731366    5.024516    11.251044    -1.077463    1.861981    8.242604    -1.112746    -0.576487    2.736720    -3.179746    1.770681    -12.639677    13.322376    -4.741665    -10.319540    -0.014145    5.663299    -8.069803    -40.410721    20.781771    -40.975197    0.944652    -29.059216    -130.800308    -8.200100    -26.552319    -10.692319    -2.548668    9.992110    2.346711    37.963787    6.561162    54.400494    -30.651031    -29.686489    57.437252    8.941257    -10.937737    34.350742    1.956904    -32.846111    -23.819633    -11.369337    24.301300    -22.028625    -5.349151    -1.304286    37.047367    0.000000    0.000000    0.000000    -2.634725    11.163154    -11.321213    3.466123    26.557558    -3.914547    19.474909    -9.927472    -3.159982    0.000000    0.000000    0.000000    
-14.223936    156.157654    -22.302273    -0.707783    5.039960    11.545645    -1.091391    1.892347    8.248848    -1.177278    -0.625565    2.737778    -3.259897    1.850359    -12.800101    13.445430    -4.786184    -10.451584    0.013779    5.676444    -8.052817    -40.360252    20.846418    -41.072193    0.811541    -28.794737    -130.971970    -8.141316    -26.546337    -10.607471    -2.535280    10.047927    2.298769    37.994915    6.597604    54.158230    -30.923624    -29.776377    57.378498    8.882704    -10.923679    34.272369    1.791634    -32.922813    -24.063484    -11.329214    24.275831    -22.128771    -5.425290    -1.253999    37.049320    0.000000    0.000000    0.000000    -2.519497    11.076510    -11.300653    3.530686    26.675022    -3.949293    19.287758    -10.097735    -3.439284    0.000000    0.000000    0.000000    
-14.329791    156.089249    -22.370733    -0.678341    5.038595    11.845579    -1.135938    1.919329    8.253813    -1.190962    -0.632002    2.738991    -3.341087    1.911465    -12.971454    13.541452    -4.847484    -10.597395    0.012644    5.643225    -8.052070    -40.361462    20.912464    -41.107738    0.755701    -28.584675    -131.111420    -7.991365    -26.457554    -10.477678    -2.536770    10.038600    2.259187    38.039326    6.631548    53.859684    -31.154552    -29.871471    57.357872    8.834833    -10.916522    34.273865    1.621071    -32.982029    -24.352793    -11.311567    24.247883    -22.212172    -5.512808    -1.244897    37.086880    0.000000    0.000000    0.000000    -2.392169    11.009679    -11.354452    3.531674    26.859177    -3.973559    19.168425    -10.345741    -3.646098    0.000000    0.000000    0.000000    
-14.436041    156.008652    -22.428328    -0.637380    5.039381    12.156260    -1.191914    1.918129    8.264780    -1.204362    -0.599690    2.742593    -3.375585    1.968376    -13.137975    13.569016    -4.935285    -10.753696    0.017598    5.621891    -8.069883    -40.316433    21.121246    -41.121067    0.710398    -28.585079    -131.224152    -8.254453    -26.514616    -10.587217    -2.525726    10.023543    2.214967    38.100433    6.625851    53.542782    -31.355494    -29.937653    57.368519    8.832276    -10.869148    34.273220    1.428005    -33.045357    -24.639816    -11.301373    24.239244    -22.263002    -5.567687    -1.229795    37.098885    0.000000    0.000000    0.000000    -2.262645    10.951252    -11.398353    3.526250    27.033476    -4.081317    19.036737    -10.597900    -3.775256    0.000000    0.000000    0.000000    
